<mxfile host="app.diagrams.net" modified="2021-12-15T07:24:05.105Z" agent="5.0 (Windows NT 10.0; WOW64) AppleWebKit/537.36 (KHTML, like Gecko) Chrome/94.0.4606.81 Safari/537.36" etag="_uIUHSHJw130eAWjWSQJ" version="15.8.3" type="github">
  <diagram id="C6laS0qsvXffX3_ghi1u" name="Page-1">
    <mxGraphModel dx="1335" dy="794" grid="1" gridSize="10" guides="1" tooltips="1" connect="1" arrows="1" fold="1" page="1" pageScale="1" pageWidth="827" pageHeight="1169" math="0" shadow="0">
      <root>
        <mxCell id="0" />
        <mxCell id="1" parent="0" />
        <mxCell id="SZgwlAMUkpaW7T0OAop5-4" value="" style="rounded=1;whiteSpace=wrap;html=1;strokeColor=none;fillColor=#BAC8D3;fontSize=24;fontColor=#23445D;align=center;opacity=60;" vertex="1" parent="1">
          <mxGeometry x="631" y="499.5" width="188" height="165" as="geometry" />
        </mxCell>
        <mxCell id="SZgwlAMUkpaW7T0OAop5-5" value="" style="rounded=1;whiteSpace=wrap;html=1;strokeColor=none;fillColor=#BAC8D3;fontSize=24;fontColor=#23445D;align=center;opacity=60;" vertex="1" parent="1">
          <mxGeometry x="196" y="494.5" width="188" height="165" as="geometry" />
        </mxCell>
        <mxCell id="SZgwlAMUkpaW7T0OAop5-6" value="" style="rounded=1;whiteSpace=wrap;html=1;strokeColor=none;fillColor=#BAC8D3;fontSize=24;fontColor=#23445D;align=center;opacity=60;" vertex="1" parent="1">
          <mxGeometry x="219" y="35.5" width="240" height="180" as="geometry" />
        </mxCell>
        <mxCell id="SZgwlAMUkpaW7T0OAop5-8" value="" style="shape=mxgraph.cisco.switches.workgroup_switch;html=1;dashed=0;fillColor=#10739E;strokeColor=#ffffff;strokeWidth=2;verticalLabelPosition=bottom;verticalAlign=top;fontFamily=Helvetica;fontSize=36;fontColor=#FFB366" vertex="1" parent="1">
          <mxGeometry x="295" y="237.5" width="101" height="50" as="geometry" />
        </mxCell>
        <mxCell id="SZgwlAMUkpaW7T0OAop5-11" value="" style="shape=mxgraph.cisco.switches.layer_3_switch;html=1;dashed=0;fillColor=#10739E;strokeColor=#ffffff;strokeWidth=2;verticalLabelPosition=bottom;verticalAlign=top;fontFamily=Helvetica;fontSize=36;fontColor=#FFB366" vertex="1" parent="1">
          <mxGeometry x="466" y="355.5" width="64" height="64" as="geometry" />
        </mxCell>
        <mxCell id="SZgwlAMUkpaW7T0OAop5-12" value="" style="shape=mxgraph.cisco.switches.layer_3_switch;html=1;dashed=0;fillColor=#10739E;strokeColor=#ffffff;strokeWidth=2;verticalLabelPosition=bottom;verticalAlign=top;fontFamily=Helvetica;fontSize=36;fontColor=#FFB366" vertex="1" parent="1">
          <mxGeometry x="1075" y="355.5" width="64" height="64" as="geometry" />
        </mxCell>
        <mxCell id="SZgwlAMUkpaW7T0OAop5-13" value="" style="shape=mxgraph.cisco.switches.workgroup_switch;html=1;dashed=0;fillColor=#10739E;strokeColor=#ffffff;strokeWidth=2;verticalLabelPosition=bottom;verticalAlign=top;fontFamily=Helvetica;fontSize=36;fontColor=#FFB366" vertex="1" parent="1">
          <mxGeometry x="265" y="387.5" width="101" height="50" as="geometry" />
        </mxCell>
        <mxCell id="SZgwlAMUkpaW7T0OAop5-14" value="" style="shape=mxgraph.cisco.switches.workgroup_switch;html=1;dashed=0;fillColor=#10739E;strokeColor=#ffffff;strokeWidth=2;verticalLabelPosition=bottom;verticalAlign=top;fontFamily=Helvetica;fontSize=36;fontColor=#FFB366" vertex="1" parent="1">
          <mxGeometry x="920" y="387.5" width="101" height="50" as="geometry" />
        </mxCell>
        <mxCell id="SZgwlAMUkpaW7T0OAop5-17" value="" style="line;html=1;strokeColor=#23445D;" vertex="1" parent="1">
          <mxGeometry x="259" y="190.5" width="170" height="10" as="geometry" />
        </mxCell>
        <mxCell id="SZgwlAMUkpaW7T0OAop5-18" value="" style="line;html=1;strokeColor=#23445D;" vertex="1" parent="1">
          <mxGeometry x="212" y="325.5" width="943" height="10" as="geometry" />
        </mxCell>
        <mxCell id="SZgwlAMUkpaW7T0OAop5-19" value="" style="edgeStyle=elbowEdgeStyle;elbow=horizontal;endArrow=none;html=1;strokeColor=#23445D;endFill=0;strokeWidth=4;rounded=1" edge="1" parent="1" target="SZgwlAMUkpaW7T0OAop5-8">
          <mxGeometry width="100" height="100" relative="1" as="geometry">
            <mxPoint x="344" y="195.5" as="sourcePoint" />
            <mxPoint x="344" y="225.5" as="targetPoint" />
          </mxGeometry>
        </mxCell>
        <mxCell id="SZgwlAMUkpaW7T0OAop5-20" value="" style="edgeStyle=elbowEdgeStyle;elbow=horizontal;endArrow=none;html=1;strokeColor=#23445D;endFill=0;strokeWidth=4;rounded=1" edge="1" parent="1">
          <mxGeometry width="100" height="100" relative="1" as="geometry">
            <mxPoint x="345" y="287.5" as="sourcePoint" />
            <mxPoint x="345.2777777777774" y="330.5833333333335" as="targetPoint" />
          </mxGeometry>
        </mxCell>
        <mxCell id="SZgwlAMUkpaW7T0OAop5-21" value="" style="edgeStyle=elbowEdgeStyle;elbow=horizontal;endArrow=none;html=1;strokeColor=#23445D;endFill=0;strokeWidth=4;rounded=1" edge="1" parent="1" source="SZgwlAMUkpaW7T0OAop5-48" target="SZgwlAMUkpaW7T0OAop5-67">
          <mxGeometry width="100" height="100" relative="1" as="geometry">
            <mxPoint x="1079" y="197.5" as="sourcePoint" />
            <mxPoint x="1080" y="237.5" as="targetPoint" />
          </mxGeometry>
        </mxCell>
        <mxCell id="SZgwlAMUkpaW7T0OAop5-22" value="" style="edgeStyle=elbowEdgeStyle;elbow=horizontal;endArrow=none;html=1;strokeColor=#23445D;endFill=0;strokeWidth=4;rounded=1" edge="1" parent="1">
          <mxGeometry width="100" height="100" relative="1" as="geometry">
            <mxPoint x="1079" y="288.5" as="sourcePoint" />
            <mxPoint x="1079.2777777777774" y="330.5833333333335" as="targetPoint" />
          </mxGeometry>
        </mxCell>
        <mxCell id="SZgwlAMUkpaW7T0OAop5-23" value="" style="elbow=horizontal;endArrow=none;html=1;strokeColor=#23445D;endFill=0;strokeWidth=4;rounded=1" edge="1" parent="1" target="SZgwlAMUkpaW7T0OAop5-61">
          <mxGeometry width="100" height="100" relative="1" as="geometry">
            <mxPoint x="1042.8313953488373" y="237.5" as="sourcePoint" />
            <mxPoint x="977.71472077203" y="190.5" as="targetPoint" />
          </mxGeometry>
        </mxCell>
        <mxCell id="SZgwlAMUkpaW7T0OAop5-24" style="edgeStyle=none;rounded=1;html=1;strokeColor=#23445D;endArrow=none;endFill=0;strokeWidth=4" edge="1" parent="1" source="SZgwlAMUkpaW7T0OAop5-11" target="SZgwlAMUkpaW7T0OAop5-13">
          <mxGeometry relative="1" as="geometry" />
        </mxCell>
        <mxCell id="SZgwlAMUkpaW7T0OAop5-26" style="edgeStyle=none;rounded=1;html=1;strokeColor=#23445D;endArrow=none;endFill=0;strokeWidth=4" edge="1" parent="1" source="SZgwlAMUkpaW7T0OAop5-12" target="SZgwlAMUkpaW7T0OAop5-14">
          <mxGeometry relative="1" as="geometry" />
        </mxCell>
        <mxCell id="SZgwlAMUkpaW7T0OAop5-27" value="" style="edgeStyle=elbowEdgeStyle;elbow=horizontal;endArrow=none;html=1;strokeColor=#23445D;endFill=0;strokeWidth=4;rounded=1" edge="1" parent="1" target="SZgwlAMUkpaW7T0OAop5-11">
          <mxGeometry width="100" height="100" relative="1" as="geometry">
            <mxPoint x="498" y="330.5" as="sourcePoint" />
            <mxPoint x="498.2777777777778" y="372.58333333333337" as="targetPoint" />
          </mxGeometry>
        </mxCell>
        <mxCell id="SZgwlAMUkpaW7T0OAop5-28" value="" style="edgeStyle=elbowEdgeStyle;elbow=horizontal;endArrow=none;html=1;strokeColor=#23445D;endFill=0;strokeWidth=4;rounded=1" edge="1" parent="1" target="SZgwlAMUkpaW7T0OAop5-12">
          <mxGeometry width="100" height="100" relative="1" as="geometry">
            <mxPoint x="1107" y="330.5" as="sourcePoint" />
            <mxPoint x="1107.2777777777778" y="372.58333333333337" as="targetPoint" />
          </mxGeometry>
        </mxCell>
        <mxCell id="SZgwlAMUkpaW7T0OAop5-29" style="edgeStyle=orthogonalEdgeStyle;rounded=1;html=1;strokeColor=#23445D;endArrow=none;endFill=0;strokeWidth=4;" edge="1" parent="1" source="SZgwlAMUkpaW7T0OAop5-13" target="SZgwlAMUkpaW7T0OAop5-60">
          <mxGeometry relative="1" as="geometry">
            <Array as="points">
              <mxPoint x="295" y="561" />
            </Array>
            <mxPoint x="295" y="455.5" as="sourcePoint" />
            <mxPoint x="248" y="560.5" as="targetPoint" />
          </mxGeometry>
        </mxCell>
        <mxCell id="SZgwlAMUkpaW7T0OAop5-31" style="edgeStyle=orthogonalEdgeStyle;rounded=1;html=1;strokeColor=#23445D;endArrow=none;endFill=0;strokeWidth=4;entryX=0.5;entryY=1;entryDx=0;entryDy=0;exitX=0.25;exitY=1;exitDx=0;exitDy=0;" edge="1" parent="1" source="SZgwlAMUkpaW7T0OAop5-56" target="SZgwlAMUkpaW7T0OAop5-59">
          <mxGeometry relative="1" as="geometry">
            <Array as="points">
              <mxPoint x="923" y="600" />
              <mxPoint x="727" y="600" />
            </Array>
            <mxPoint x="748" y="554" as="targetPoint" />
          </mxGeometry>
        </mxCell>
        <mxCell id="SZgwlAMUkpaW7T0OAop5-32" value="&lt;font color=&quot;#23445d&quot;&gt;大屏&lt;/font&gt;" style="rounded=1;whiteSpace=wrap;html=1;strokeColor=none;fillColor=none;fontSize=14;fontColor=#742B21;align=center;fontStyle=1" vertex="1" parent="1">
          <mxGeometry x="256" y="55.5" width="71" height="19" as="geometry" />
        </mxCell>
        <mxCell id="SZgwlAMUkpaW7T0OAop5-33" value="redis数据库" style="rounded=1;whiteSpace=wrap;html=1;strokeColor=none;fillColor=none;fontSize=14;fontColor=#23445D;align=center;fontStyle=1" vertex="1" parent="1">
          <mxGeometry x="675" y="617" width="94" height="20" as="geometry" />
        </mxCell>
        <mxCell id="SZgwlAMUkpaW7T0OAop5-35" value="web服务器" style="rounded=1;whiteSpace=wrap;html=1;strokeColor=none;fillColor=none;fontSize=14;fontColor=#23445D;align=center;fontStyle=1" vertex="1" parent="1">
          <mxGeometry x="247" y="618" width="93" height="19" as="geometry" />
        </mxCell>
        <mxCell id="SZgwlAMUkpaW7T0OAop5-36" style="edgeStyle=orthogonalEdgeStyle;curved=1;rounded=0;jumpStyle=none;html=1;exitX=0.75;exitY=0;entryX=0.75;entryY=0;shadow=0;labelBackgroundColor=#ffffff;startArrow=none;startFill=0;endArrow=none;endFill=0;endSize=10;jettySize=auto;orthogonalLoop=1;strokeColor=#23445D;strokeWidth=2;fillColor=#F08705;fontFamily=Helvetica;fontSize=25;fontColor=#23445D;align=left;" edge="1" parent="1">
          <mxGeometry relative="1" as="geometry">
            <mxPoint x="439.75" y="618" as="sourcePoint" />
            <mxPoint x="439.75" y="618" as="targetPoint" />
          </mxGeometry>
        </mxCell>
        <mxCell id="SZgwlAMUkpaW7T0OAop5-40" value="" style="rounded=1;whiteSpace=wrap;html=1;strokeColor=none;fillColor=#BAC8D3;fontSize=24;fontColor=#23445D;align=center;opacity=60;" vertex="1" parent="1">
          <mxGeometry x="842" y="499.5" width="188" height="165" as="geometry" />
        </mxCell>
        <mxCell id="SZgwlAMUkpaW7T0OAop5-41" value="交通仿真发送服务" style="rounded=1;whiteSpace=wrap;html=1;strokeColor=none;fillColor=none;fontSize=14;fontColor=#23445D;align=center;fontStyle=1" vertex="1" parent="1">
          <mxGeometry x="881" y="617" width="121" height="20" as="geometry" />
        </mxCell>
        <mxCell id="SZgwlAMUkpaW7T0OAop5-42" value="" style="rounded=1;whiteSpace=wrap;html=1;strokeColor=none;fillColor=#BAC8D3;fontSize=24;fontColor=#23445D;align=center;opacity=60;" vertex="1" parent="1">
          <mxGeometry x="1035" y="499.5" width="188" height="165" as="geometry" />
        </mxCell>
        <mxCell id="SZgwlAMUkpaW7T0OAop5-43" value="云渲染服务器" style="rounded=1;whiteSpace=wrap;html=1;strokeColor=none;fillColor=none;fontSize=14;fontColor=#23445D;align=center;fontStyle=1" vertex="1" parent="1">
          <mxGeometry x="1071" y="617" width="100" height="20" as="geometry" />
        </mxCell>
        <mxCell id="SZgwlAMUkpaW7T0OAop5-46" style="edgeStyle=orthogonalEdgeStyle;rounded=1;html=1;strokeColor=#23445D;endArrow=none;endFill=0;strokeWidth=4;" edge="1" parent="1" source="SZgwlAMUkpaW7T0OAop5-14" target="SZgwlAMUkpaW7T0OAop5-56">
          <mxGeometry relative="1" as="geometry">
            <Array as="points">
              <mxPoint x="995" y="562" />
            </Array>
            <mxPoint x="995" y="447.5" as="sourcePoint" />
            <mxPoint x="1035" y="562" as="targetPoint" />
          </mxGeometry>
        </mxCell>
        <mxCell id="SZgwlAMUkpaW7T0OAop5-47" style="edgeStyle=orthogonalEdgeStyle;rounded=1;html=1;strokeColor=#23445D;endArrow=none;endFill=0;strokeWidth=4;entryX=0;entryY=0.5;entryDx=0;entryDy=0;" edge="1" parent="1" source="SZgwlAMUkpaW7T0OAop5-14" target="SZgwlAMUkpaW7T0OAop5-57">
          <mxGeometry relative="1" as="geometry">
            <Array as="points">
              <mxPoint x="1005" y="560" />
              <mxPoint x="1089" y="560" />
            </Array>
            <mxPoint x="1005" y="447.5" as="sourcePoint" />
            <mxPoint x="1225.88" y="547.96" as="targetPoint" />
          </mxGeometry>
        </mxCell>
        <mxCell id="SZgwlAMUkpaW7T0OAop5-48" value="外网" style="shape=mxgraph.cisco.storage.cloud;html=1;dashed=0;strokeColor=#23445D;fillColor=#ffffff;strokeWidth=2;fontFamily=Helvetica;fontSize=24;fontColor=#23445D;align=center;fontStyle=1" vertex="1" parent="1">
          <mxGeometry x="1089" y="20" width="186" height="106" as="geometry" />
        </mxCell>
        <mxCell id="SZgwlAMUkpaW7T0OAop5-54" style="edgeStyle=orthogonalEdgeStyle;rounded=0;orthogonalLoop=1;jettySize=auto;html=1;exitX=0;exitY=0.5;exitDx=0;exitDy=0;exitPerimeter=0;entryX=1;entryY=0.5;entryDx=0;entryDy=0;entryPerimeter=0;" edge="1" parent="1" source="SZgwlAMUkpaW7T0OAop5-49" target="SZgwlAMUkpaW7T0OAop5-62">
          <mxGeometry relative="1" as="geometry" />
        </mxCell>
        <mxCell id="SZgwlAMUkpaW7T0OAop5-49" value="" style="shape=mxgraph.cisco.computers_and_peripherals.ibm_mini_as400;html=1;dashed=0;fillColor=#10739E;strokeColor=#ffffff;strokeWidth=2;verticalLabelPosition=bottom;verticalAlign=top;fontFamily=Helvetica;fontSize=36;fontColor=#FFB366" vertex="1" parent="1">
          <mxGeometry x="385" y="98.5" width="43" height="62" as="geometry" />
        </mxCell>
        <mxCell id="SZgwlAMUkpaW7T0OAop5-52" value="&lt;font color=&quot;#23445d&quot;&gt;渲染机&lt;/font&gt;" style="rounded=1;whiteSpace=wrap;html=1;strokeColor=none;fillColor=none;fontSize=14;fontColor=#742B21;align=center;fontStyle=1" vertex="1" parent="1">
          <mxGeometry x="366" y="54.5" width="71" height="19" as="geometry" />
        </mxCell>
        <mxCell id="SZgwlAMUkpaW7T0OAop5-55" value="" style="shape=mxgraph.cisco.switches.workgroup_switch;html=1;dashed=0;fillColor=#10739E;strokeColor=#ffffff;strokeWidth=2;verticalLabelPosition=bottom;verticalAlign=top;fontFamily=Helvetica;fontSize=36;fontColor=#FFB366" vertex="1" parent="1">
          <mxGeometry x="1010" y="236" width="101" height="50" as="geometry" />
        </mxCell>
        <mxCell id="SZgwlAMUkpaW7T0OAop5-56" value="" style="aspect=fixed;perimeter=ellipsePerimeter;html=1;align=center;shadow=0;dashed=0;spacingTop=3;image;image=img/lib/active_directory/windows_server_2.svg;" vertex="1" parent="1">
          <mxGeometry x="904.8" y="530.25" width="65.2" height="81.5" as="geometry" />
        </mxCell>
        <mxCell id="SZgwlAMUkpaW7T0OAop5-57" value="" style="aspect=fixed;perimeter=ellipsePerimeter;html=1;align=center;shadow=0;dashed=0;spacingTop=3;image;image=img/lib/active_directory/windows_server_2.svg;" vertex="1" parent="1">
          <mxGeometry x="1089" y="532.5" width="62" height="77.5" as="geometry" />
        </mxCell>
        <mxCell id="SZgwlAMUkpaW7T0OAop5-59" value="" style="aspect=fixed;perimeter=ellipsePerimeter;html=1;align=center;shadow=0;dashed=0;spacingTop=3;image;image=img/lib/active_directory/database_server.svg;" vertex="1" parent="1">
          <mxGeometry x="694" y="530" width="65.6" height="80" as="geometry" />
        </mxCell>
        <mxCell id="SZgwlAMUkpaW7T0OAop5-60" value="" style="aspect=fixed;perimeter=ellipsePerimeter;html=1;align=center;shadow=0;dashed=0;spacingTop=3;image;image=img/lib/active_directory/web_server.svg;" vertex="1" parent="1">
          <mxGeometry x="262" y="523.5" width="64" height="80" as="geometry" />
        </mxCell>
        <mxCell id="SZgwlAMUkpaW7T0OAop5-61" value="" style="rounded=1;whiteSpace=wrap;html=1;strokeColor=none;fillColor=#BAC8D3;fontSize=24;fontColor=#23445D;align=center;opacity=60;" vertex="1" parent="1">
          <mxGeometry x="660" y="39.5" width="240" height="180" as="geometry" />
        </mxCell>
        <mxCell id="SZgwlAMUkpaW7T0OAop5-62" value="" style="shape=mxgraph.cisco.misc.pad_2;html=1;pointerEvents=1;dashed=0;fillColor=#036897;strokeColor=#ffffff;strokeWidth=2;verticalLabelPosition=bottom;verticalAlign=top;align=center;outlineConnect=0;" vertex="1" parent="1">
          <mxGeometry x="248" y="105" width="85" height="48" as="geometry" />
        </mxCell>
        <mxCell id="SZgwlAMUkpaW7T0OAop5-63" value="" style="html=1;verticalLabelPosition=bottom;labelBackgroundColor=#ffffff;verticalAlign=top;shadow=0;dashed=0;strokeWidth=1;shape=mxgraph.ios7.misc.ipad13inch;strokeColor=#c0c0c0;" vertex="1" parent="1">
          <mxGeometry x="775" y="101" width="60" height="80" as="geometry" />
        </mxCell>
        <mxCell id="SZgwlAMUkpaW7T0OAop5-64" value="" style="verticalLabelPosition=bottom;html=1;verticalAlign=top;align=center;strokeColor=none;fillColor=#00BEF2;shape=mxgraph.azure.mobile;pointerEvents=1;" vertex="1" parent="1">
          <mxGeometry x="848" y="105" width="35" height="50" as="geometry" />
        </mxCell>
        <mxCell id="SZgwlAMUkpaW7T0OAop5-65" value="" style="fontColor=#0066CC;verticalAlign=top;verticalLabelPosition=bottom;labelPosition=center;align=center;html=1;outlineConnect=0;fillColor=#CCCCCC;strokeColor=#6881B3;gradientColor=none;gradientDirection=north;strokeWidth=2;shape=mxgraph.networks.pc;" vertex="1" parent="1">
          <mxGeometry x="665" y="97" width="100" height="70" as="geometry" />
        </mxCell>
        <mxCell id="SZgwlAMUkpaW7T0OAop5-66" value="&lt;font color=&quot;#23445d&quot;&gt;终端&lt;/font&gt;" style="rounded=1;whiteSpace=wrap;html=1;strokeColor=none;fillColor=none;fontSize=14;fontColor=#742B21;align=center;fontStyle=1" vertex="1" parent="1">
          <mxGeometry x="744.5" y="53" width="71" height="19" as="geometry" />
        </mxCell>
        <mxCell id="SZgwlAMUkpaW7T0OAop5-67" value="" style="shape=mxgraph.cisco.switches.layer_3_switch;html=1;dashed=0;fillColor=#10739E;strokeColor=#ffffff;strokeWidth=2;verticalLabelPosition=bottom;verticalAlign=top;fontFamily=Helvetica;fontSize=36;fontColor=#FFB366" vertex="1" parent="1">
          <mxGeometry x="1107" y="150" width="64" height="64" as="geometry" />
        </mxCell>
        <mxCell id="SZgwlAMUkpaW7T0OAop5-69" value="" style="edgeStyle=elbowEdgeStyle;elbow=horizontal;endArrow=none;html=1;strokeColor=#23445D;endFill=0;strokeWidth=4;rounded=1;entryX=0.5;entryY=1;entryDx=0;entryDy=0;entryPerimeter=0;exitX=0.792;exitY=0.4;exitDx=0;exitDy=0;exitPerimeter=0;" edge="1" parent="1" source="SZgwlAMUkpaW7T0OAop5-55" target="SZgwlAMUkpaW7T0OAop5-67">
          <mxGeometry width="100" height="100" relative="1" as="geometry">
            <mxPoint x="1158" y="116.5" as="sourcePoint" />
            <mxPoint x="1085" y="151" as="targetPoint" />
            <Array as="points">
              <mxPoint x="1139" y="240" />
            </Array>
          </mxGeometry>
        </mxCell>
      </root>
    </mxGraphModel>
  </diagram>
</mxfile>
